<?xml version="1.0" encoding="utf-8"?>
<!-- Generator: Adobe Illustrator 22.1.0, SVG Export Plug-In . SVG Version: 6.00 Build 0)  -->
<svg version="1.1" id="Layer_1" xmlns="http://www.w3.org/2000/svg" xmlns:xlink="http://www.w3.org/1999/xlink" x="0px" y="0px"
	 viewBox="0 0 369 649" style="enable-background:new 0 0 369 649;" xml:space="preserve">
<style type="text/css">
	.st0{fill:#FFFFFF;stroke:#463AFF;stroke-miterlimit:10;}
	.st1{fill:#463AFF;stroke:#FFFFFF;stroke-miterlimit:10;}
</style>
<g>
	<path class="st0" d="M309,55c68.7,68.7,68.7,180.2,0,248.9c-7.9,7.9-16.4,14.9-25.4,21l2.1,36.1c0.4,6.8-2.1,13.5-7,18.4
		l-26.3,26.3l28.3,28.3c9.4,9.4,9.4,24.6,0,33.9l-28.3,28.3l28.3,28.3c9.4,9.4,9.4,24.6,0,33.9l-79.2,79.2c-9.4,9.4-24.6,9.4-33.9,0
		l-55.2-55.1c-4.5-4.5-7-10.6-7-17V336.7c-16.3-8.2-31.6-19.1-45.3-32.8C-8.6,235.2-8.6,123.7,60.1,55C129.1-13.9,240.1-13.9,309,55
		z"/>
	<path class="st1" d="M216.5,130.3C211.3,98.4,199.1,76,184.9,76s-26.4,22.4-31.6,54.3H216.5z M150.7,164.5c0,7.9,0.4,15.5,1.2,22.8
		H218c0.7-7.3,1.2-14.9,1.2-22.8s-0.4-15.5-1.2-22.8h-66.1C151.1,149,150.7,156.6,150.7,164.5z M266.5,130.3
		c-10.2-24.2-30.9-43-56.4-50.5c8.7,12.1,14.7,30.2,17.8,50.5H266.5z M159.6,79.7c-25.5,7.6-46.2,26.3-56.4,50.5h38.5
		C144.9,109.9,150.9,91.8,159.6,79.7L159.6,79.7z M270.4,141.7h-41c0.7,7.5,1.2,15.2,1.2,22.8c0,7.7-0.4,15.3-1.2,22.8h40.9
		c2-7.3,3.1-14.9,3.1-22.8S272.3,149,270.4,141.7L270.4,141.7z M139.2,164.5c0-7.7,0.4-15.3,1.2-22.8H99.5
		c-1.9,7.3-3.1,14.9-3.1,22.8s1.1,15.5,3.1,22.8h40.9C139.7,179.9,139.2,172.2,139.2,164.5z M153.3,198.8
		c5.2,31.9,17.4,54.3,31.6,54.3s26.4-22.4,31.6-54.3H153.3z M210.2,249.3c25.5-7.6,46.2-26.3,56.4-50.5h-38.5
		C224.9,219.1,218.9,237.3,210.2,249.3z M103.3,198.8c10.2,24.2,30.9,43,56.4,50.5c-8.7-12.1-14.7-30.2-17.8-50.5
		C141.8,198.8,103.3,198.8,103.3,198.8z"/>
</g>
</svg>
